<mxfile host="app.diagrams.net" modified="2021-11-21T12:54:10.428Z" agent="5.0 (Macintosh; Intel Mac OS X 10_15_7) AppleWebKit/605.1.15 (KHTML, like Gecko) Version/15.1 Safari/605.1.15" etag="C2cjA3QFTP-vCLR3RXBS" version="15.8.3" type="github">
  <diagram name="Page-1" id="5f0bae14-7c28-e335-631c-24af17079c00">
    <mxGraphModel dx="1081" dy="700" grid="1" gridSize="10" guides="1" tooltips="1" connect="1" arrows="1" fold="1" page="1" pageScale="1" pageWidth="1100" pageHeight="850" background="none" math="0" shadow="0">
      <root>
        <mxCell id="0" />
        <mxCell id="1" parent="0" />
        <mxCell id="jXM1cJq22h-sAAVVkd_1-25" value="sends queries" style="edgeStyle=orthogonalEdgeStyle;rounded=0;orthogonalLoop=1;jettySize=auto;html=1;entryX=0;entryY=0;entryDx=20;entryDy=0;entryPerimeter=0;" edge="1" parent="1" source="jXM1cJq22h-sAAVVkd_1-8" target="jXM1cJq22h-sAAVVkd_1-13">
          <mxGeometry relative="1" as="geometry">
            <mxPoint x="520" y="300" as="targetPoint" />
            <Array as="points">
              <mxPoint x="495" y="280" />
              <mxPoint x="630" y="280" />
            </Array>
          </mxGeometry>
        </mxCell>
        <mxCell id="jXM1cJq22h-sAAVVkd_1-8" value="APIs" style="shape=folder;fontStyle=1;spacingTop=10;tabWidth=40;tabHeight=14;tabPosition=left;html=1;" vertex="1" parent="1">
          <mxGeometry x="460" y="190" width="70" height="50" as="geometry" />
        </mxCell>
        <mxCell id="jXM1cJq22h-sAAVVkd_1-22" style="edgeStyle=orthogonalEdgeStyle;rounded=0;orthogonalLoop=1;jettySize=auto;html=1;" edge="1" parent="1" source="jXM1cJq22h-sAAVVkd_1-9">
          <mxGeometry relative="1" as="geometry">
            <mxPoint x="630" y="190" as="targetPoint" />
          </mxGeometry>
        </mxCell>
        <mxCell id="jXM1cJq22h-sAAVVkd_1-23" value="check&lt;br&gt;auth" style="edgeLabel;html=1;align=center;verticalAlign=middle;resizable=0;points=[];" vertex="1" connectable="0" parent="jXM1cJq22h-sAAVVkd_1-22">
          <mxGeometry x="-0.1667" y="-1" relative="1" as="geometry">
            <mxPoint as="offset" />
          </mxGeometry>
        </mxCell>
        <mxCell id="jXM1cJq22h-sAAVVkd_1-9" value="Routes" style="shape=folder;fontStyle=1;spacingTop=10;tabWidth=40;tabHeight=14;tabPosition=left;html=1;" vertex="1" parent="1">
          <mxGeometry x="680" y="100" width="70" height="50" as="geometry" />
        </mxCell>
        <mxCell id="jXM1cJq22h-sAAVVkd_1-10" value="Models" style="shape=folder;fontStyle=1;spacingTop=10;tabWidth=40;tabHeight=14;tabPosition=left;html=1;" vertex="1" parent="1">
          <mxGeometry x="310" y="190" width="70" height="50" as="geometry" />
        </mxCell>
        <mxCell id="jXM1cJq22h-sAAVVkd_1-11" value="Middelwares" style="shape=folder;fontStyle=1;spacingTop=10;tabWidth=40;tabHeight=14;tabPosition=left;html=1;" vertex="1" parent="1">
          <mxGeometry x="610" y="190" width="70" height="50" as="geometry" />
        </mxCell>
        <mxCell id="jXM1cJq22h-sAAVVkd_1-28" style="edgeStyle=orthogonalEdgeStyle;rounded=0;orthogonalLoop=1;jettySize=auto;html=1;entryX=0.25;entryY=1;entryDx=0;entryDy=0;entryPerimeter=0;" edge="1" parent="1" source="jXM1cJq22h-sAAVVkd_1-12" target="jXM1cJq22h-sAAVVkd_1-8">
          <mxGeometry relative="1" as="geometry" />
        </mxCell>
        <mxCell id="jXM1cJq22h-sAAVVkd_1-29" value="injects&lt;br&gt;logic" style="edgeLabel;html=1;align=center;verticalAlign=middle;resizable=0;points=[];" vertex="1" connectable="0" parent="jXM1cJq22h-sAAVVkd_1-28">
          <mxGeometry x="-0.3137" y="-2" relative="1" as="geometry">
            <mxPoint as="offset" />
          </mxGeometry>
        </mxCell>
        <mxCell id="jXM1cJq22h-sAAVVkd_1-12" value="Services" style="shape=folder;fontStyle=1;spacingTop=10;tabWidth=40;tabHeight=14;tabPosition=left;html=1;" vertex="1" parent="1">
          <mxGeometry x="350" y="310" width="70" height="50" as="geometry" />
        </mxCell>
        <mxCell id="jXM1cJq22h-sAAVVkd_1-13" value="MongoDB" style="shape=folder;fontStyle=1;spacingTop=10;tabWidth=40;tabHeight=14;tabPosition=left;html=1;" vertex="1" parent="1">
          <mxGeometry x="610" y="310" width="70" height="50" as="geometry" />
        </mxCell>
        <mxCell id="jXM1cJq22h-sAAVVkd_1-16" style="edgeStyle=orthogonalEdgeStyle;rounded=0;orthogonalLoop=1;jettySize=auto;html=1;exitX=0;exitY=0;exitDx=0;exitDy=47;exitPerimeter=0;entryX=0.75;entryY=1;entryDx=0;entryDy=0;entryPerimeter=0;" edge="1" parent="1" source="jXM1cJq22h-sAAVVkd_1-14" target="jXM1cJq22h-sAAVVkd_1-9">
          <mxGeometry relative="1" as="geometry" />
        </mxCell>
        <mxCell id="jXM1cJq22h-sAAVVkd_1-17" value="requests&lt;br&gt;data" style="edgeLabel;html=1;align=center;verticalAlign=middle;resizable=0;points=[];" vertex="1" connectable="0" parent="jXM1cJq22h-sAAVVkd_1-16">
          <mxGeometry x="-0.1192" y="2" relative="1" as="geometry">
            <mxPoint as="offset" />
          </mxGeometry>
        </mxCell>
        <mxCell id="jXM1cJq22h-sAAVVkd_1-14" value="frontend&lt;br&gt;(black box)" style="shape=folder;fontStyle=1;spacingTop=10;tabWidth=40;tabHeight=14;tabPosition=left;html=1;" vertex="1" parent="1">
          <mxGeometry x="810" y="175" width="100" height="80" as="geometry" />
        </mxCell>
        <mxCell id="jXM1cJq22h-sAAVVkd_1-19" value="tests" style="edgeStyle=orthogonalEdgeStyle;rounded=0;orthogonalLoop=1;jettySize=auto;html=1;entryX=0;entryY=0;entryDx=20;entryDy=0;entryPerimeter=0;" edge="1" parent="1" source="jXM1cJq22h-sAAVVkd_1-18" target="jXM1cJq22h-sAAVVkd_1-9">
          <mxGeometry relative="1" as="geometry" />
        </mxCell>
        <mxCell id="jXM1cJq22h-sAAVVkd_1-18" value="Postman" style="shape=folder;fontStyle=1;spacingTop=10;tabWidth=40;tabHeight=14;tabPosition=left;html=1;" vertex="1" parent="1">
          <mxGeometry x="550" y="30" width="70" height="50" as="geometry" />
        </mxCell>
        <mxCell id="jXM1cJq22h-sAAVVkd_1-21" value="uses" style="endArrow=open;endSize=12;dashed=1;html=1;rounded=0;entryX=0;entryY=0;entryDx=70;entryDy=32;entryPerimeter=0;" edge="1" parent="1" target="jXM1cJq22h-sAAVVkd_1-10">
          <mxGeometry width="160" relative="1" as="geometry">
            <mxPoint x="460" y="222" as="sourcePoint" />
            <mxPoint x="720" y="220" as="targetPoint" />
          </mxGeometry>
        </mxCell>
        <mxCell id="jXM1cJq22h-sAAVVkd_1-24" value="redirects" style="endArrow=classic;html=1;rounded=0;exitX=0;exitY=0;exitDx=0;exitDy=32;exitPerimeter=0;entryX=0;entryY=0;entryDx=70;entryDy=32;entryPerimeter=0;" edge="1" parent="1" source="jXM1cJq22h-sAAVVkd_1-11" target="jXM1cJq22h-sAAVVkd_1-8">
          <mxGeometry width="50" height="50" relative="1" as="geometry">
            <mxPoint x="550" y="370" as="sourcePoint" />
            <mxPoint x="600" y="320" as="targetPoint" />
          </mxGeometry>
        </mxCell>
        <mxCell id="jXM1cJq22h-sAAVVkd_1-30" value="Client" style="shape=umlActor;verticalLabelPosition=bottom;verticalAlign=top;html=1;" vertex="1" parent="1">
          <mxGeometry x="1000" y="180" width="30" height="60" as="geometry" />
        </mxCell>
        <mxCell id="jXM1cJq22h-sAAVVkd_1-34" value="" style="endArrow=none;html=1;rounded=0;exitX=0;exitY=0;exitDx=100;exitDy=47;exitPerimeter=0;" edge="1" parent="1" source="jXM1cJq22h-sAAVVkd_1-14">
          <mxGeometry width="50" height="50" relative="1" as="geometry">
            <mxPoint x="950" y="270" as="sourcePoint" />
            <mxPoint x="1000" y="220" as="targetPoint" />
            <Array as="points" />
          </mxGeometry>
        </mxCell>
        <mxCell id="jXM1cJq22h-sAAVVkd_1-35" value="Dev" style="shape=umlActor;verticalLabelPosition=bottom;verticalAlign=top;html=1;" vertex="1" parent="1">
          <mxGeometry x="430" y="40" width="30" height="60" as="geometry" />
        </mxCell>
        <mxCell id="jXM1cJq22h-sAAVVkd_1-38" value="" style="endArrow=none;html=1;rounded=0;" edge="1" parent="1" source="jXM1cJq22h-sAAVVkd_1-35">
          <mxGeometry width="50" height="50" relative="1" as="geometry">
            <mxPoint x="460" y="62.000000000000114" as="sourcePoint" />
            <mxPoint x="550" y="60" as="targetPoint" />
            <Array as="points" />
          </mxGeometry>
        </mxCell>
      </root>
    </mxGraphModel>
  </diagram>
</mxfile>
